<svg width="201" height="46" viewBox="0 0 201 46" fill="none" xmlns="http://www.w3.org/2000/svg">
<g clip-path="url(#clip0_2177_1622)">
<path d="M0.538086 34.3347H34.8291V0H0.538086V34.3347ZM8.15591 7.62594H14.0649V21.3181L14.8691 22.1303H20.4981L21.3022 21.3181V7.66187H27.2112V23.2012L23.449 26.7016H11.9182L8.15591 23.2012V7.62594Z" fill="black"/>
<path d="M35.7842 34.3347H70.0823V0H35.7842V34.3347ZM43.4092 7.62594H62.4645V12.2187H55.8878V26.7016H49.9788V12.2187H43.4092V7.62594Z" fill="black"/>
<path d="M71.0303 0V34.3347H105.328V0H71.0303ZM78.6553 7.62594H94.214L97.7034 10.8531V18.2562L94.214 21.4834H84.5643V26.7016H78.6553V7.62594Z" fill="black"/>
<path d="M84.5645 12.2188V16.9266H90.9904L91.8017 16.1216V13.0238L90.9904 12.2188H84.5645Z" fill="black"/>
<path d="M119.81 12.7938V14.6985H112.099V4.4707H119.652V6.37539H114.231V8.53164H118.467V10.3932H114.231V12.7938H119.81Z" fill="black"/>
<path d="M127.263 12.4919C127.263 13.7209 126.179 14.8853 124.004 14.8853C121.828 14.8853 120.687 13.8934 120.543 12.3769H122.532C122.632 13.0525 123.156 13.34 123.968 13.34C124.779 13.34 125.239 13.0669 125.239 12.535C125.239 12.0031 124.894 11.8162 124.126 11.7156L122.833 11.5C121.67 11.2987 120.816 10.695 120.816 9.46594C120.816 8.23688 121.756 7.1875 123.932 7.1875C125.763 7.1875 126.89 8.08594 127.048 9.39406H125.059C124.973 8.89094 124.478 8.73281 123.86 8.73281C123.243 8.73281 122.819 8.96281 122.819 9.36531C122.819 9.76781 123.113 9.87563 123.702 9.97625L124.837 10.1631C126.323 10.3428 127.263 11.0184 127.263 12.4919Z" fill="black"/>
<path d="M135.103 12.2186C134.916 13.807 133.588 14.8851 131.743 14.8851C129.467 14.8851 128.038 13.3542 128.038 11.0182C128.038 8.6823 129.474 7.15137 131.743 7.15137C133.588 7.15137 134.845 8.17918 135.046 9.68137H133.057C132.978 9.40665 132.804 9.16924 132.566 9.01228C132.327 8.85532 132.04 8.78924 131.757 8.82605C130.515 8.82605 130.041 9.82512 130.041 10.9823C130.041 12.1395 130.529 13.2032 131.757 13.2032C132.071 13.2451 132.389 13.1638 132.645 12.9762C132.901 12.7887 133.074 12.5095 133.129 12.197L135.103 12.2186Z" fill="black"/>
<path d="M136.267 11.8018V7.33838H138.27V11.4999C138.27 12.5206 138.751 13.0956 139.706 13.0956C139.935 13.087 140.159 13.0314 140.366 12.9323C140.572 12.8333 140.756 12.6928 140.907 12.5196C141.057 12.3464 141.17 12.1443 141.238 11.9256C141.307 11.7069 141.331 11.4764 141.307 11.2484V7.33838H143.31V14.6984H141.364V13.9796H141.077C140.844 14.2757 140.543 14.5103 140.198 14.6631C139.854 14.8159 139.478 14.8823 139.103 14.8565C137.178 14.8853 136.267 13.6562 136.267 11.8018Z" fill="black"/>
<path d="M151.818 11.2482H146.548C146.606 12.506 147.195 13.2247 148.336 13.2247C148.619 13.2652 148.908 13.2111 149.157 13.0707C149.406 12.9304 149.602 12.7117 149.715 12.4485H151.747C151.445 13.886 150.311 14.885 148.307 14.885C145.996 14.885 144.56 13.3397 144.56 10.9894C144.56 8.6391 145.996 7.15129 148.264 7.15129C148.734 7.11923 149.205 7.1871 149.646 7.35042C150.087 7.51374 150.489 7.7688 150.825 8.09882C151.161 8.42883 151.423 8.82631 151.594 9.26508C151.765 9.70384 151.842 10.1739 151.818 10.6444V11.2482ZM146.62 9.91129H149.772C149.734 9.54139 149.554 9.20071 149.27 8.9608C148.986 8.7209 148.621 8.60044 148.25 8.62472C147.867 8.59802 147.488 8.715 147.187 8.95286C146.886 9.19072 146.684 9.53241 146.62 9.91129Z" fill="black"/>
<path d="M155.085 4.3125V14.6984H153.082V4.3125H155.085Z" fill="black"/>
<path d="M161.289 14.0657H161.001C160.74 14.3468 160.42 14.5661 160.063 14.7079C159.707 14.8496 159.323 14.9101 158.941 14.8851C158.601 14.9172 158.257 14.8777 157.933 14.769C157.609 14.6602 157.311 14.4848 157.059 14.2539C156.807 14.0231 156.606 13.7419 156.468 13.4284C156.331 13.115 156.261 12.7763 156.263 12.4342C156.263 11.277 157.081 9.98324 159.257 9.98324H161.217V9.79637C161.217 9.04168 160.786 8.65356 159.91 8.65356C159.034 8.65356 158.725 8.95543 158.668 9.44418H156.679C156.737 8.00668 158.007 7.15137 159.81 7.15137C161.798 7.15137 163.148 7.9348 163.148 9.91137V14.6982H161.289V14.0657ZM161.217 11.7442V11.3201H159.644C158.783 11.3201 158.266 11.6292 158.266 12.2761C158.266 12.9229 158.754 13.2967 159.573 13.2967C159.784 13.3105 159.996 13.2805 160.196 13.2086C160.396 13.1367 160.578 13.0245 160.732 12.8788C160.887 12.7331 161.009 12.5572 161.093 12.362C161.176 12.1668 161.218 11.9565 161.217 11.7442Z" fill="black"/>
<path d="M173.034 8.02125H173.314V4.3125H175.317V14.6984H173.372V13.9797H173.092C172.853 14.2766 172.546 14.5114 172.197 14.6641C171.849 14.8168 171.468 14.8828 171.088 14.8566C169.057 14.8566 167.836 13.225 167.836 10.9897C167.836 8.75438 169.114 7.1875 171.117 7.1875C171.48 7.16 171.845 7.22156 172.179 7.36684C172.513 7.51212 172.806 7.73674 173.034 8.02125ZM173.386 11.0184C173.386 9.85406 172.847 8.82625 171.598 8.82625C170.349 8.82625 169.839 9.78219 169.839 11.0184C169.839 12.2547 170.399 13.225 171.598 13.225C172.797 13.225 173.415 12.1756 173.415 11.0184H173.386Z" fill="black"/>
<path d="M183.876 11.2484H178.613C178.67 12.5062 179.252 13.225 180.401 13.225C180.683 13.265 180.97 13.2106 181.218 13.0702C181.466 12.9298 181.661 12.7113 181.772 12.4487H183.804C183.502 13.8862 182.368 14.8853 180.372 14.8853C178.053 14.8853 176.624 13.34 176.624 10.9896C176.624 8.63934 178.06 7.18746 180.329 7.18746C180.798 7.1553 181.269 7.22316 181.71 7.38654C182.151 7.54992 182.552 7.80511 182.887 8.13525C183.223 8.4654 183.484 8.86298 183.654 9.30174C183.825 9.74051 183.9 10.2105 183.876 10.6806V11.2484ZM178.685 9.91152H181.829C181.791 9.54295 181.612 9.20337 181.33 8.96366C181.048 8.72394 180.684 8.6026 180.314 8.62496C179.931 8.59659 179.551 8.71295 179.25 8.9511C178.948 9.18925 178.746 9.53191 178.685 9.91152Z" fill="black"/>
<path d="M122.776 21.9077C122.776 24.5455 121.039 26.1411 118.052 26.1411H114.806V30.8345H112.078V17.7461H118.052C121.06 17.7461 122.776 19.2986 122.776 21.9077ZM119.976 21.9436C119.976 20.7864 119.351 20.1467 117.664 20.1467H114.792V23.7405H117.664C119.373 23.7189 119.997 23.0792 119.997 21.9436H119.976Z" fill="black"/>
<path d="M133.151 26.1265C133.151 29.0734 131.262 31.0715 128.276 31.0715C125.289 31.0715 123.4 29.0734 123.4 26.1265C123.4 23.1796 125.31 21.1743 128.276 21.1743C131.241 21.1743 133.151 23.1724 133.151 26.1265ZM130.58 26.1265C130.58 24.6171 129.862 23.3162 128.276 23.3162C126.689 23.3162 125.971 24.6171 125.971 26.1265C125.971 27.6359 126.689 28.944 128.276 28.944C129.862 28.944 130.58 27.6431 130.58 26.1265Z" fill="black"/>
<path d="M142.714 28.0311C142.714 29.6124 141.322 31.093 138.536 31.093C135.75 31.093 134.285 29.828 134.099 27.8874H136.647C136.777 28.7499 137.452 29.1164 138.514 29.1164C139.577 29.1164 140.144 28.7642 140.144 28.0886C140.144 27.413 139.706 27.2046 138.708 27.0392L137.028 26.7517C135.542 26.493 134.443 25.7239 134.443 24.1427C134.443 22.5614 135.649 21.1958 138.435 21.1958C140.783 21.1958 142.226 22.3458 142.427 24.0205H139.886C139.771 23.3736 139.132 23.1724 138.342 23.1724C137.552 23.1724 137.006 23.4671 137.006 23.9774C137.006 24.4877 137.394 24.6386 138.141 24.768L139.577 25.0052C141.501 25.2639 142.714 26.1264 142.714 28.0311Z" fill="black"/>
<path d="M149.908 21.4117V23.568H147.546V27.6433C147.546 28.2614 147.862 28.6711 148.738 28.6711H149.908V30.8274H148.623C146.469 30.8274 145.033 30.3674 145.033 28.0242V23.5536H143.367V21.3974H145.033V18.7739H147.596V21.4117H149.908Z" fill="black"/>
<path d="M160.663 21.4116V30.3744C160.663 33.0554 158.724 34.6869 155.939 34.6869C153.375 34.6869 151.595 33.5872 151.415 31.5172H153.957C154.086 32.2863 154.747 32.6744 155.903 32.6744C157.511 32.6744 158.1 31.5747 158.1 30.1444V29.5766H157.734C157.458 29.9517 157.091 30.2497 156.667 30.4422C156.243 30.6348 155.778 30.7153 155.314 30.6763C152.751 30.6763 151.063 28.6926 151.063 25.9254C151.063 23.1582 152.765 21.1601 155.335 21.1601C155.808 21.1288 156.28 21.2149 156.711 21.4105C157.142 21.6061 157.518 21.9052 157.805 22.2813H158.172V21.4116H160.663ZM158.193 25.9397C158.193 24.5023 157.403 23.3163 155.881 23.3163C154.359 23.3163 153.648 24.4376 153.648 25.9397C153.648 27.4419 154.474 28.5416 155.903 28.5416C157.331 28.5416 158.193 27.3701 158.193 25.9397Z" fill="black"/>
<path d="M169.093 23.7978H168.267C166.307 23.7978 165.395 24.8399 165.395 26.6728V30.8343H162.832V21.4115H165.309V22.4896H165.675C165.989 22.1125 166.389 21.8172 166.842 21.6294C167.295 21.4416 167.786 21.3668 168.274 21.4115H169.1L169.093 23.7978Z" fill="black"/>
<path d="M176.165 30.0294H175.798C175.463 30.3881 175.051 30.6676 174.594 30.8478C174.137 31.0281 173.646 31.1045 173.156 31.0716C171.002 31.0716 169.731 29.6341 169.731 27.9378C169.731 26.45 170.773 24.8041 173.558 24.8041H176.071V24.5669C176.071 23.5894 175.518 23.1294 174.406 23.1294C173.293 23.1294 172.883 23.5103 172.812 24.1356H170.263C170.335 22.3388 171.964 21.2031 174.276 21.2031C176.818 21.2031 178.541 22.2094 178.541 24.7394V30.8344H176.165V30.0294ZM176.071 27.0609V26.5075H174.054C172.955 26.5075 172.295 26.91 172.295 27.7366C172.295 28.5631 172.919 29.0375 173.96 29.0375C174.231 29.0563 174.502 29.019 174.758 28.9281C175.013 28.8372 175.248 28.6946 175.446 28.5092C175.644 28.3237 175.801 28.0994 175.909 27.8503C176.017 27.6011 176.072 27.3324 176.071 27.0609Z" fill="black"/>
<path d="M186.676 22.2812H187.042V17.5015H189.605V30.8343H187.114V29.9574H186.748C186.441 30.3354 186.048 30.634 185.602 30.8279C185.156 31.0218 184.67 31.1054 184.184 31.0715C181.578 31.0715 180.027 28.9799 180.027 26.1265C180.027 23.273 181.621 21.1743 184.184 21.1743C184.659 21.1378 185.135 21.2198 185.57 21.413C186.005 21.6062 186.385 21.9045 186.676 22.2812ZM187.128 26.1193C187.128 24.6315 186.41 23.309 184.845 23.309C183.28 23.309 182.591 24.538 182.591 26.1193C182.591 27.7005 183.309 28.9368 184.845 28.9368C186.381 28.9368 187.15 27.6071 187.15 26.1265L187.128 26.1193Z" fill="black"/>
<path d="M201.036 26.1265C201.036 29.0734 199.155 31.0715 196.168 31.0715C193.181 31.0715 191.293 29.0734 191.293 26.1265C191.293 23.1796 193.196 21.1743 196.168 21.1743C199.141 21.1743 201.036 23.1724 201.036 26.1265ZM198.473 26.1265C198.473 24.6171 197.755 23.3162 196.168 23.3162C194.581 23.3162 193.856 24.6171 193.856 26.1265C193.856 27.6359 194.574 28.944 196.168 28.944C197.762 28.944 198.437 27.6431 198.437 26.1265H198.473Z" fill="black"/>
<path d="M4.03508 39.7539V42.8014C4.03508 43.9873 3.31709 44.663 2.01036 44.663C0.703626 44.663 0 43.9873 0 42.8014V39.7539H1.00518V42.7798C0.996242 42.914 1.01654 43.0484 1.06467 43.1739C1.11279 43.2994 1.1876 43.4129 1.28389 43.5065C1.38019 43.6002 1.49568 43.6718 1.62236 43.7163C1.74904 43.7609 1.88388 43.7773 2.01754 43.7645C2.15146 43.7786 2.28684 43.7631 2.41409 43.719C2.54135 43.6749 2.65737 43.6033 2.75395 43.5094C2.85053 43.4155 2.92531 43.3014 2.97299 43.1753C3.02068 43.0493 3.0401 42.9143 3.0299 42.7798V39.7539H4.03508Z" fill="black"/>
<path d="M8.20645 42.4709V44.5624H7.26589V42.6002C7.26589 42.1259 7.02178 41.8815 6.58381 41.8815C6.47587 41.8859 6.36997 41.9123 6.27252 41.9589C6.17507 42.0056 6.08811 42.0716 6.01693 42.1529C5.94575 42.2343 5.89183 42.3292 5.85845 42.4321C5.82507 42.5349 5.81292 42.6435 5.82274 42.7512V44.5624H4.875V41.1052H5.79402V41.4287H5.93044C6.04097 41.2895 6.18377 41.1795 6.34642 41.1081C6.50908 41.0367 6.68668 41.0061 6.86382 41.019C7.05253 41.0076 7.24139 41.0384 7.41682 41.1089C7.59224 41.1794 7.74984 41.2881 7.87827 41.4269C8.00669 41.5658 8.10274 41.7315 8.15949 41.912C8.21624 42.0925 8.23228 42.2834 8.20645 42.4709Z" fill="black"/>
<path d="M8.94629 40.5233V39.668H9.92275V40.5233H8.94629ZM9.90839 44.5627H8.96065V41.1055H9.90839V44.5627Z" fill="black"/>
<path d="M10.3389 41.1055H11.3153L12.0333 43.7289H12.2846L13.0026 41.1055H13.9791L12.9595 44.5627H11.3369L10.3389 41.1055Z" fill="black"/>
<path d="M17.626 42.9453H15.1417C15.1417 43.5418 15.4505 43.8796 15.989 43.8796C16.1219 43.8982 16.2573 43.8724 16.3742 43.8061C16.491 43.7398 16.5827 43.6368 16.6351 43.5131H17.5901C17.52 43.8759 17.3132 44.1977 17.0123 44.4119C16.7115 44.626 16.3399 44.716 15.9746 44.6631C15.7332 44.6754 15.492 44.6356 15.2672 44.5465C15.0425 44.4574 14.8395 44.321 14.6721 44.1465C14.5046 43.972 14.3765 43.7636 14.2965 43.5353C14.2165 43.3069 14.1864 43.064 14.2084 42.8231C14.1862 42.5855 14.2156 42.346 14.2946 42.121C14.3736 41.8959 14.5003 41.6906 14.6661 41.5192C14.8318 41.3478 15.0327 41.2144 15.2549 41.128C15.477 41.0417 15.7152 41.0045 15.9531 41.019C16.1743 41.0034 16.3963 41.0351 16.6044 41.1119C16.8125 41.1887 17.0019 41.3089 17.1601 41.4645C17.3183 41.6201 17.4416 41.8076 17.5219 42.0146C17.6022 42.2216 17.6377 42.4432 17.626 42.6649V42.9453ZM15.1776 42.3199H16.6639C16.6457 42.1464 16.5604 41.9868 16.4262 41.8753C16.2921 41.7638 16.1197 41.7093 15.9459 41.7234C15.7664 41.7082 15.5878 41.7612 15.4455 41.8717C15.3032 41.9822 15.2076 42.1422 15.1776 42.3199Z" fill="black"/>
<path d="M20.5346 41.9822H20.2258C20.0814 41.9628 19.9345 41.9773 19.7966 42.0245C19.6587 42.0717 19.5336 42.1503 19.4313 42.2542C19.3289 42.358 19.2521 42.4842 19.2068 42.6229C19.1616 42.7616 19.1491 42.9089 19.1704 43.0532V44.5625H18.2227V41.1053H19.1345V41.5007H19.2709C19.3867 41.3629 19.5339 41.255 19.7001 41.1862C19.8663 41.1174 20.0467 41.0896 20.2258 41.1053H20.5346V41.9822Z" fill="black"/>
<path d="M23.9303 43.5347C23.9303 44.1169 23.4206 44.6631 22.3938 44.6631C21.3671 44.6631 20.8215 44.1959 20.7568 43.4844H21.6974C21.7477 43.8006 21.9918 43.93 22.4154 43.93C22.839 43.93 22.9754 43.8437 22.9754 43.5562C22.9754 43.2687 22.8103 43.2328 22.4441 43.1681L21.8266 43.0603C21.281 42.9669 20.8717 42.6865 20.8717 42.1044C20.8717 41.5222 21.3169 41.019 22.3436 41.019C23.2052 41.019 23.7796 41.4431 23.7796 42.054H22.8893C22.8534 41.8169 22.6164 41.745 22.322 41.745C22.0277 41.745 21.8338 41.8528 21.8338 42.0397C21.8338 42.2265 21.9774 42.284 22.2502 42.3344L22.7816 42.4206C23.4852 42.5212 23.9303 42.8375 23.9303 43.5347Z" fill="black"/>
<path d="M24.4834 40.5233V39.668H25.4527V40.5233H24.4834ZM25.4383 44.5627H24.4978V41.1055H25.4383V44.5627Z" fill="black"/>
<path d="M28.4972 41.4289H28.6336V39.668H29.5741V44.5627H28.6551V44.2392H28.5259C28.4112 44.3772 28.2656 44.4863 28.1009 44.5574C27.9362 44.6286 27.7572 44.6599 27.5781 44.6489C26.6232 44.6489 26.0488 43.8798 26.0488 42.8233C26.0488 41.7667 26.6304 41.0048 27.5781 41.0048C27.7545 40.9928 27.9311 41.0253 28.0917 41.0994C28.2523 41.1735 28.3917 41.2868 28.4972 41.4289ZM28.6623 42.8664C28.6623 42.3202 28.411 41.8386 27.8223 41.8386C27.2335 41.8386 26.9894 42.2842 26.9894 42.8664C26.9894 43.4486 27.255 43.9086 27.8223 43.9086C28.3895 43.9086 28.6623 43.3839 28.6623 42.8377V42.8664Z" fill="black"/>
<path d="M32.496 44.275H32.3595C32.2373 44.4082 32.0868 44.5123 31.919 44.5795C31.7512 44.6466 31.5705 44.6752 31.3903 44.6631C31.2317 44.675 31.0724 44.6539 30.9224 44.601C30.7725 44.5482 30.6351 44.4647 30.519 44.3559C30.4029 44.2472 30.3107 44.1154 30.2481 43.9691C30.1855 43.8228 30.1539 43.6651 30.1553 43.5059C30.1553 42.9597 30.5359 42.3559 31.5913 42.3559H32.5175V42.2625C32.5175 41.9103 32.3165 41.7234 31.9072 41.7234C31.498 41.7234 31.3472 41.8672 31.3185 42.0972H30.3205C30.3205 41.4359 30.9523 41.019 31.7995 41.019C32.6467 41.019 33.3719 41.3856 33.3719 42.32V44.5625H32.496V44.275ZM32.496 43.1825V42.9812H31.778C31.3687 42.9812 31.1246 43.1322 31.1246 43.434C31.1246 43.7359 31.3544 43.9156 31.7421 43.9156C31.8376 43.9156 31.9321 43.8966 32.0202 43.8596C32.1082 43.8225 32.188 43.7683 32.2549 43.7C32.3218 43.6318 32.3744 43.5508 32.4096 43.462C32.4448 43.3731 32.462 43.2781 32.4601 43.1825H32.496Z" fill="black"/>
<path d="M36.3731 41.4289H36.5024V39.668H37.4501V44.5627H36.5311V44.2392H36.3947C36.2822 44.378 36.1381 44.4877 35.9744 44.559C35.8107 44.6303 35.6322 44.6612 35.4541 44.6489C34.4992 44.6489 33.9248 43.8798 33.9248 42.8233C33.9248 41.7667 34.5064 41.0048 35.4541 41.0048C35.6305 40.9928 35.8071 41.0253 35.9677 41.0994C36.1283 41.1735 36.2677 41.2868 36.3731 41.4289ZM36.5383 42.8664C36.5383 42.3202 36.287 41.8386 35.6982 41.8386C35.1095 41.8386 34.8654 42.2842 34.8654 42.8664C34.8654 43.4486 35.131 43.9086 35.6982 43.9086C36.2654 43.9086 36.5383 43.3839 36.5383 42.8377V42.8664Z" fill="black"/>
<path d="M43.1867 40.638H41.6933V44.5623H40.6881V40.638H39.1875V39.7539H43.1867V40.638Z" fill="black"/>
<path d="M46.2167 42.9453H43.7324C43.7324 43.5418 44.034 43.8796 44.5796 43.8796C44.7126 43.8982 44.848 43.8724 44.9649 43.8061C45.0817 43.7398 45.1734 43.6368 45.2258 43.5131H46.1808C46.1107 43.8759 45.9038 44.1977 45.603 44.4119C45.3022 44.626 44.9306 44.716 44.5653 44.6631C44.3239 44.6754 44.0826 44.6356 43.8579 44.5465C43.6332 44.4574 43.4302 44.321 43.2627 44.1465C43.0953 43.972 42.9672 43.7636 42.8872 43.5353C42.8072 43.3069 42.7771 43.064 42.799 42.8231C42.7773 42.5881 42.8061 42.3512 42.8834 42.1282C42.9607 41.9053 43.0849 41.7015 43.2474 41.5306C43.41 41.3597 43.6072 41.2256 43.8259 41.1374C44.0445 41.0491 44.2795 41.0088 44.515 41.019C44.7363 41.0034 44.9583 41.0351 45.1664 41.1119C45.3745 41.1887 45.5639 41.3089 45.7221 41.4645C45.8802 41.6201 46.0036 41.8076 46.0839 42.0146C46.1642 42.2216 46.1997 42.4432 46.1879 42.6649L46.2167 42.9453ZM43.797 42.3199H45.233C45.2148 42.1464 45.1295 41.9868 44.9954 41.8753C44.8612 41.7638 44.6888 41.7093 44.515 41.7234C44.344 41.7209 44.1777 41.7796 44.046 41.889C43.9144 41.9984 43.8261 42.1512 43.797 42.3199Z" fill="black"/>
<path d="M49.9504 43.4055C49.9054 43.7824 49.7133 44.1262 49.416 44.3618C49.1187 44.5975 48.7404 44.7058 48.3636 44.6633C47.9007 44.6342 47.4662 44.4295 47.1486 44.091C46.8311 43.7525 46.6543 43.3056 46.6543 42.8413C46.6543 42.3769 46.8311 41.93 47.1486 41.5915C47.4662 41.253 47.9007 41.0484 48.3636 41.0192C48.726 40.9832 49.0886 41.0864 49.3779 41.308C49.6671 41.5295 49.8615 41.8528 49.9216 42.2124H48.9883C48.9501 42.0827 48.8669 41.9709 48.7537 41.8971C48.6405 41.8233 48.5047 41.7924 48.3708 41.8099C47.7892 41.8099 47.5666 42.277 47.5666 42.8305C47.5666 43.3839 47.7892 43.8799 48.3708 43.8799C48.5196 43.899 48.67 43.8605 48.7915 43.7724C48.9129 43.6842 48.9961 43.553 49.0242 43.4055H49.9504Z" fill="black"/>
<path d="M53.8486 42.4711V44.5627H52.9296V42.6005C52.9296 42.1261 52.6855 41.8817 52.2116 41.8817C52.1037 41.8861 51.9978 41.9125 51.9003 41.9591C51.8029 42.0058 51.7159 42.0718 51.6448 42.1532C51.5736 42.2345 51.5197 42.3295 51.4863 42.4323C51.4529 42.5352 51.4407 42.6437 51.4506 42.7514V44.5627H50.5459V41.1055H51.4577V41.4289H51.5942C51.7066 41.2901 51.8508 41.1804 52.0145 41.1091C52.1782 41.0378 52.3566 41.007 52.5347 41.0192C52.7211 41.0123 52.9067 41.0462 53.0786 41.1187C53.2504 41.1911 53.4043 41.3004 53.5295 41.4387C53.6548 41.5771 53.7482 41.7412 53.8033 41.9195C53.8584 42.0979 53.8739 42.2861 53.8486 42.4711Z" fill="black"/>
<path d="M58.0136 42.8373C58.0094 43.1918 57.9005 43.537 57.7007 43.8297C57.5009 44.1223 57.2191 44.3493 56.8908 44.482C56.5624 44.6147 56.2022 44.6472 55.8555 44.5755C55.5087 44.5037 55.1909 44.3309 54.942 44.0788C54.6931 43.8266 54.5243 43.5064 54.4568 43.1585C54.3892 42.8105 54.426 42.4503 54.5625 42.1232C54.699 41.7962 54.929 41.5168 55.2237 41.3203C55.5184 41.1238 55.8646 41.0189 56.2187 41.0189C56.4601 41.0039 56.702 41.0408 56.9281 41.1271C57.1541 41.2135 57.359 41.3473 57.5291 41.5196C57.6991 41.6919 57.8304 41.8986 57.9139 42.1259C57.9975 42.3532 58.0315 42.5958 58.0136 42.8373ZM57.0731 42.8373C57.0731 42.2839 56.8146 41.8095 56.2187 41.8095C55.6227 41.8095 55.3714 42.2839 55.3714 42.8373C55.3714 43.3908 55.6371 43.8795 56.2187 43.8795C56.8002 43.8795 57.0731 43.398 57.0731 42.8373Z" fill="black"/>
<path d="M59.5927 39.668V44.5627H58.6162V39.668H59.5927Z" fill="black"/>
<path d="M63.75 42.8377C63.7457 43.1921 63.6368 43.5374 63.437 43.83C63.2372 44.1226 62.9554 44.3496 62.6271 44.4823C62.2988 44.615 61.9386 44.6475 61.5918 44.5758C61.245 44.504 60.9272 44.3312 60.6783 44.0791C60.4295 43.8269 60.2606 43.5068 60.1931 43.1588C60.1256 42.8108 60.1624 42.4507 60.2988 42.1236C60.4353 41.7965 60.6653 41.5171 60.96 41.3206C61.2547 41.1241 61.6009 41.0192 61.955 41.0192C62.1962 41.0054 62.4375 41.0431 62.663 41.1299C62.8885 41.2167 63.093 41.3505 63.2628 41.5226C63.4326 41.6946 63.5639 41.9008 63.6479 42.1276C63.7319 42.3543 63.7667 42.5964 63.75 42.8377ZM62.8022 42.8377C62.8022 42.2842 62.5437 41.8098 61.955 41.8098C61.3662 41.8098 61.1006 42.2842 61.1006 42.8377C61.1006 43.3911 61.3662 43.8798 61.955 43.8798C62.5437 43.8798 62.8022 43.3983 62.8022 42.8377ZM62.3283 40.6455H61.5027L62.1201 39.668H63.1181L62.3283 40.6455Z" fill="black"/>
<path d="M67.6843 41.1051V44.4041C67.6886 44.6273 67.6454 44.8489 67.5577 45.0541C67.4699 45.2593 67.3395 45.4435 67.1752 45.5944C67.0108 45.7453 66.8163 45.8595 66.6046 45.9294C66.3928 45.9993 66.1686 46.0233 65.9468 45.9998C64.9991 45.9998 64.3457 45.5973 64.2811 44.8282H65.2145C65.2647 45.1157 65.5088 45.2595 65.9324 45.2595C66.5212 45.2595 66.7366 44.8498 66.7366 44.3251V44.1166H66.6073C66.5054 44.254 66.3701 44.363 66.2143 44.4334C66.0585 44.5039 65.8874 44.5334 65.7171 44.5191C65.2868 44.4713 64.8893 44.2663 64.6006 43.9434C64.312 43.6205 64.1523 43.2023 64.1523 42.769C64.1523 42.3356 64.312 41.9175 64.6006 41.5946C64.8893 41.2717 65.2868 41.0667 65.7171 41.0188C65.89 41.0063 66.0633 41.0372 66.2213 41.1088C66.3793 41.1803 66.5169 41.2902 66.6217 41.4285H66.7725V41.1051H67.6843ZM66.7725 42.7726C66.7518 42.6111 66.6851 42.4589 66.5804 42.3343C66.4756 42.2097 66.3372 42.1179 66.1818 42.07C66.0263 42.022 65.8604 42.0198 65.7037 42.0637C65.5471 42.1076 65.4064 42.1957 65.2984 42.3176C65.1904 42.4394 65.1198 42.5897 65.0949 42.7507C65.07 42.9116 65.0919 43.0763 65.158 43.2251C65.2241 43.3739 65.3316 43.5005 65.4677 43.5897C65.6037 43.679 65.7626 43.7272 65.9253 43.7285C66.0458 43.7283 66.165 43.7026 66.275 43.653C66.3849 43.6035 66.4831 43.5311 66.5631 43.4408C66.6432 43.3506 66.7032 43.2443 66.7393 43.1291C66.7754 43.014 66.7867 42.8925 66.7725 42.7726Z" fill="black"/>
<path d="M68.4746 40.5233V39.668H69.4439V40.5233H68.4746ZM69.4295 44.5627H68.489V41.1055H69.4295V44.5627Z" fill="black"/>
<path d="M73.3706 43.4055C73.317 43.7758 73.1247 44.1119 72.8327 44.3455C72.5407 44.5791 72.1708 44.6927 71.7982 44.6633C71.3352 44.6342 70.9007 44.4295 70.5832 44.091C70.2656 43.7525 70.0889 43.3056 70.0889 42.8413C70.0889 42.3769 70.2656 41.93 70.5832 41.5915C70.9007 41.253 71.3352 41.0484 71.7982 41.0192C72.1606 40.9832 72.5231 41.0864 72.8124 41.308C73.1017 41.5295 73.2961 41.8528 73.3562 42.2124H72.4156C72.3803 42.0824 72.2988 41.9699 72.1864 41.8958C72.0741 41.8217 71.9386 41.7911 71.8054 41.8099C71.2166 41.8099 70.994 42.277 70.994 42.8305C70.994 43.3839 71.2238 43.8799 71.8054 43.8799C71.9536 43.9007 72.104 43.8627 72.2247 43.7741C72.3454 43.6855 72.4268 43.5532 72.4515 43.4055H73.3706Z" fill="black"/>
<path d="M76.1067 44.275H75.9703C75.8481 44.4082 75.6976 44.5123 75.5298 44.5795C75.362 44.6466 75.1813 44.6752 75.001 44.6631C74.8402 44.6793 74.6778 44.6613 74.5243 44.6104C74.3709 44.5594 74.23 44.4766 74.1107 44.3674C73.9914 44.2582 73.8965 44.125 73.8322 43.9765C73.7679 43.8281 73.7356 43.6677 73.7374 43.5059C73.7374 42.9597 74.1251 42.3559 75.1733 42.3559H76.0924V42.2625C76.0924 41.9103 75.8913 41.7234 75.4821 41.7234C75.0728 41.7234 74.9221 41.8672 74.8933 42.0972H73.9528C73.9528 41.4359 74.5774 41.019 75.3887 41.019C76.2001 41.019 76.9611 41.3856 76.9611 42.32V44.5625H76.1067V44.275ZM76.1067 43.1825V42.9812H75.3887C74.9867 42.9812 74.7426 43.1322 74.7426 43.434C74.7426 43.7359 74.9723 43.9156 75.3528 43.9156C75.542 43.91 75.7213 43.8298 75.8517 43.6925C75.9822 43.5552 76.0532 43.3719 76.0493 43.1825H76.1067Z" fill="black"/>
<path d="M81.6348 41.4289H81.7713V39.668H82.7118V44.5627H81.8V44.2392H81.6636C81.5488 44.3772 81.4033 44.4863 81.2386 44.5574C81.0739 44.6286 80.8948 44.6599 80.7158 44.6489C79.7609 44.6489 79.1865 43.8798 79.1865 42.8233C79.1865 41.7667 79.7753 41.0048 80.7158 41.0048C80.8924 40.9915 81.0695 41.0234 81.2303 41.0976C81.3911 41.1718 81.5303 41.2858 81.6348 41.4289ZM81.8 42.8664C81.8 42.3202 81.5487 41.8386 80.9599 41.8386C80.3712 41.8386 80.1271 42.2842 80.1271 42.8664C80.1271 43.4486 80.3927 43.9086 80.9599 43.9086C81.5272 43.9086 81.8 43.3839 81.8 42.8377V42.8664Z" fill="black"/>
<path d="M86.7328 42.9453H84.2486C84.2486 43.5418 84.5573 43.8796 85.0958 43.8796C85.2289 43.8995 85.3648 43.8742 85.4819 43.8077C85.599 43.7413 85.6906 43.6376 85.742 43.5131H86.6969C86.6269 43.8759 86.42 44.1977 86.1192 44.4119C85.8184 44.626 85.4467 44.716 85.0814 44.6631C84.8377 44.6797 84.5933 44.6432 84.365 44.556C84.1368 44.4688 83.9302 44.333 83.7595 44.158C83.5888 43.9831 83.4581 43.7731 83.3765 43.5426C83.2948 43.3121 83.2641 43.0666 83.2865 42.8231C83.2643 42.5855 83.2937 42.346 83.3727 42.121C83.4517 41.8959 83.5785 41.6906 83.7442 41.5192C83.91 41.3478 84.1108 41.2144 84.333 41.128C84.5551 41.0417 84.7933 41.0045 85.0312 41.019C85.2524 41.0034 85.4744 41.0351 85.6825 41.1119C85.8906 41.1887 86.08 41.3089 86.2382 41.4645C86.3964 41.6201 86.5197 41.8076 86.6 42.0146C86.6804 42.2216 86.7158 42.4432 86.7041 42.6649L86.7328 42.9453ZM84.2845 42.3199H85.7707C85.7525 42.1464 85.6672 41.9868 85.5331 41.8753C85.3989 41.7638 85.2265 41.7093 85.0527 41.7234C84.8733 41.7082 84.6947 41.7612 84.5524 41.8717C84.4101 41.9822 84.3145 42.1422 84.2845 42.3199Z" fill="black"/>
<path d="M88.312 39.668V44.5627H87.3643V39.668H88.312Z" fill="black"/>
<path d="M94.7738 41.2848C94.7738 42.2552 94.1348 42.8445 93.0291 42.8445H91.8372V44.5623H90.832V39.7539H93.0291C94.1061 39.7539 94.7738 40.3289 94.7738 41.2848ZM93.7399 41.2848C93.7399 40.8608 93.5101 40.6236 92.8927 40.6236H91.8372V41.9461H92.8927C93.4814 41.9605 93.7112 41.6873 93.7112 41.2992L93.7399 41.2848Z" fill="black"/>
<path d="M98.3639 42.9454H95.8797C95.8797 43.542 96.1812 43.8798 96.7269 43.8798C96.8599 43.8983 96.9953 43.8725 97.1121 43.8062C97.2289 43.74 97.3206 43.637 97.3731 43.5132H98.3639C98.2939 43.876 98.087 44.1979 97.7862 44.412C97.4854 44.6262 97.1137 44.7161 96.7484 44.6632C96.5064 44.6766 96.2644 44.6377 96.0388 44.549C95.8132 44.4604 95.6093 44.3241 95.441 44.1495C95.2728 43.9749 95.144 43.7661 95.0636 43.5372C94.9832 43.3083 94.953 43.0648 94.975 42.8232C94.9527 42.585 94.9822 42.3449 95.0617 42.1193C95.1411 41.8937 95.2685 41.688 95.4351 41.5165C95.6016 41.3449 95.8034 41.2116 96.0264 41.1258C96.2495 41.0399 96.4884 41.0035 96.7269 41.0191C96.9452 41.0088 97.1633 41.0444 97.367 41.1235C97.5708 41.2027 97.7557 41.3237 97.91 41.4788C98.0642 41.6338 98.1842 41.8195 98.2624 42.0238C98.3406 42.2281 98.3752 42.4466 98.3639 42.6651V42.9454ZM95.9156 42.3201H97.3946C97.3782 42.1457 97.2934 41.985 97.1588 41.8732C97.0242 41.7614 96.8508 41.7075 96.6766 41.7235C96.5019 41.7158 96.3304 41.7721 96.1942 41.8819C96.0581 41.9917 95.9667 42.1476 95.9371 42.3201H95.9156Z" fill="black"/>
<path d="M101.293 41.9822H100.985C100.84 41.9628 100.693 41.9773 100.555 42.0245C100.417 42.0717 100.292 42.1503 100.19 42.2542C100.088 42.358 100.011 42.4842 99.9656 42.6229C99.9203 42.7616 99.9079 42.9089 99.9292 43.0532V44.5625H98.9814V41.1053H99.8933V41.5007H100.03C100.145 41.3629 100.293 41.255 100.459 41.1862C100.625 41.1174 100.805 41.0896 100.985 41.1053H101.293V41.9822Z" fill="black"/>
<path d="M101.717 43.2114V41.1055H102.672V43.0748C102.672 43.5564 102.902 43.7936 103.34 43.7936C103.446 43.7919 103.551 43.7685 103.649 43.7247C103.746 43.6809 103.833 43.6177 103.905 43.539C103.977 43.4602 104.032 43.3676 104.067 43.2668C104.102 43.166 104.116 43.0591 104.108 42.9527V41.1055H105.056V44.5627H104.108V44.2392H103.971C103.862 44.3783 103.721 44.4884 103.559 44.5598C103.398 44.6313 103.221 44.6619 103.045 44.6489C102.859 44.6577 102.673 44.6256 102.501 44.5549C102.328 44.4843 102.173 44.3767 102.047 44.2397C101.92 44.1027 101.825 43.9397 101.768 43.7621C101.711 43.5845 101.694 43.3965 101.717 43.2114ZM103.656 40.6455H102.83L103.447 39.668H104.445L103.656 40.6455Z" fill="black"/>
</g>
<defs>
<clipPath id="clip0_2177_1622">
<rect width="201" height="46" fill="white"/>
</clipPath>
</defs>
</svg>